<?xml version="1.0" encoding="utf-8"?>
<!DOCTYPE svg PUBLIC "-//W3C//DTD SVG 1.1//EN" "http://www.w3.org/Graphics/SVG/1.1/DTD/svg11.dtd">
<svg version="1.1" id="Layer_1" xmlns="http://www.w3.org/2000/svg" xmlns:xlink="http://www.w3.org/1999/xlink" x="0px" y="0px"
	 viewBox="-5 -6.8321 272 371.6641" enable-background="new -5 -6.8321 272 371.6641" xml:space="preserve">
<g id="_x23_ffffffff">
</g>
<g>
	<path fill="#FF6600" stroke="#FF6600" stroke-width="0.0938" d="M53.0077,1.0051c0,0,132.7,3.39,161.96,3.98
		c-27.15,41.41-83.29,128.83-85.65,129.55c-7.31-10.8-13.1-22.56-19.87-33.7c-13.28-22.8-26.3-45.75-39.27-68.73
		C64.1577,21.9051,58.9777,11.2251,53.0077,1.0051 M89.0177,48.0951c13.21,25.73,28.25,50.47,42.63,75.55
		c6.79-10.56,13.8-20.98,20.68-31.48c8.52-14.55,19.04-27.9,27.11-42.68C149.2877,49.2451,119.1477,48.6651,89.0177,48.0951z"/>
	<path fill="#FF9955" stroke="#FF9955" stroke-width="0.0938" d="M20.6977,16.8451c9.53-0.4,19.07-0.1,28.61-0.07
		c4.75-0.47,5.75,5.35,7.5,8.62c14.06,29.24,28.32,58.39,42.36,87.64c1.48,2.75,1.08,5.97,1.14,8.97
		c-0.2,9.17,0.21,18.35-0.25,27.52c-3.48,1.35-6.97,2.66-10.49,3.86c-24.91,10.71-46.28,31.27-54.78,57.38
		c-2.93,6.47-3.13,13.68-4.95,20.46c-0.91,8.54-1.23,17.47,1.73,25.66c0.59,7.97,3.83,15.38,7.05,22.57
		c7.06,14.99,18.5,27.59,31.87,37.24c10.31,7.29,22.07,12.33,34.15,15.78c5.58,0.68,10.99,2.18,16.5,3.19
		c8.75,0.31,17.76,1.1,26.3-1.31c5.79-1.27,11.9-1.31,17.37-3.84c30.36-9.49,56.19-34.09,65.13-64.89c0.91-2.5,1.67-5.07,2.11-7.7
		c1.65-12.62,1.71-25.55-0.68-38.07c-1.76-5.7-3.38-11.49-5.98-16.88c-9.77-21.58-28.08-38.87-49.59-48.55
		c-3.79-1.59-7.69-2.9-11.43-4.62c-0.27-9.93,0.01-19.87-0.16-29.81c0.06-3.26-0.34-6.77,1.28-9.76
		c15.53-28.49,30.88-57.09,46.3-85.65c1.37-2.66,2.77-6.75,6.5-6.25c8.36-0.04,16.72,0.15,25.09,0.13
		c-2.53,6.08-6.27,11.53-9.42,17.28c-17.91,29.84-35.53,59.84-53.43,89.67c-1,1.25-0.58,2.84,1.07,3.12
		c37.97,15.81,67.71,50.63,76.4,90.93c2.48,6.64,2.22,13.81,3.22,20.74c1.51,10.65-0.62,21.3-1.62,31.89
		c-3.27,14.36-9.05,28.37-18.1,40.1c-16.75,21.57-42.49,34.41-68.64,40.53c-6.25,0.68-12.38,2.05-18.52,3.3
		c-13.88,1.31-27.87,1.11-41.79,0.47c-6-0.17-11.62-2.59-17.6-2.97c-7.37-0.42-14.09-3.76-21.29-5.07
		c-13.36-4.97-26.53-11.12-37.53-20.35c-17.48-13.66-29.83-34.06-33.33-56c-1.55-5.09-2.21-10.39-2.54-15.68v-13.85
		c0.73-6.59,0.5-13.37,2.78-19.7c7.95-42.78,39.63-79.7,80-95.53c-4.28-5.99-7.53-12.61-11.15-19
		c-13.8-24.55-27.61-49.1-41.31-73.71C27.0777,28.8151,23.7177,22.9151,20.6977,16.8451z"/>
	<path fill="#800000" stroke="#800000" stroke-width="0.0938" d="M89.0177,48.0951c30.13,0.57,60.27,1.15,90.42,1.39
		c-8.07,14.78-18.59,28.13-27.11,42.68c-6.88,10.5-13.89,20.92-20.68,31.48C117.2677,98.5651,102.2277,73.8251,89.0177,48.0951z"/>
	<path fill="#800000" stroke="#800000" stroke-width="0.0938" d="M31.5677,256.8851c3.86-0.19,7.74-0.12,11.61-0.02
		c0.27,2.31,0.68,4.62,1.38,6.85c7.18,19.5,22.01,35.93,40.48,45.39c10.31,5.11,21.44,9.28,33.12,9.17
		c-3.66-3.21-8.02-5.43-11.85-8.41c-11.28-8.84-20.78-20.13-26.8-33.18c-3.3-6.11-4.59-13.01-6.73-19.56
		c3.83-0.16,7.65-0.14,11.48-0.12c49.26,0.3,98.52,0.71,147.79,0.92c-0.44,2.63-1.2,5.2-2.11,7.7c-8.94,30.8-34.77,55.4-65.13,64.89
		c-5.47,2.53-11.58,2.57-17.37,3.84c-8.54,2.41-17.55,1.62-26.3,1.31c-5.51-1.01-10.92-2.51-16.5-3.19
		c-12.08-3.45-23.84-8.49-34.15-15.78c-13.37-9.65-24.81-22.25-31.87-37.24C35.3977,272.2651,32.1577,264.8551,31.5677,256.8851z"/>
	<path fill="#87CDDE" stroke="#87CDDE" stroke-width="0.0938" d="M109.8777,158.7951c3.66-1.28,7.56-1.44,11.39-1.6
		c-2.48,1.96-5.33,3.33-8.05,4.91c-16.5,9.91-29.12,25.7-36.34,43.44c-1.8,6.76-4.85,13.21-4.88,20.34
		c-10.32,0.22-20.65,0.17-30.97,0.03c1.88-6.87,3.38-13.95,6.76-20.28c5.34-11.84,14.13-21.82,24.24-29.83
		c6.67-4.68,13.43-9.49,21.29-11.96C98.4477,160.9551,104.4577,160.8451,109.8777,158.7951z"/>
	<path fill="#87CDDE" stroke="#87CDDE" stroke-width="0.0938" d="M42.9077,254.0451c9.72-0.05,19.44-0.13,29.16,0.05
		c0.23,1.01,0.47,2.02,0.71,3.03c2.14,6.55,3.43,13.45,6.73,19.56c6.02,13.05,15.52,24.34,26.8,33.18c3.83,2.98,8.19,5.2,11.85,8.41
		c-11.68,0.11-22.81-4.06-33.12-9.17c-18.47-9.46-33.3-25.89-40.48-45.39c-0.7-2.23-1.11-4.54-1.38-6.85
		C43.1077,256.1551,42.9677,254.7451,42.9077,254.0451z"/>
</g>
</svg>
